<mxfile host="app.diagrams.net" modified="2023-11-29T19:58:03.429Z" agent="Mozilla/5.0 (Windows NT 10.0; Win64; x64) AppleWebKit/537.36 (KHTML, like Gecko) Chrome/119.0.0.0 Safari/537.36 Edg/119.0.0.0" etag="jsMpa4d2R0TXLVzhfyFI" version="22.1.5" type="github">
  <diagram name="Page-1" id="QZ-Rxu-KmP-QJJkz0mSO">
    <mxGraphModel dx="1386" dy="751" grid="1" gridSize="10" guides="1" tooltips="1" connect="1" arrows="1" fold="1" page="1" pageScale="1" pageWidth="850" pageHeight="1100" math="0" shadow="0">
      <root>
        <mxCell id="0" />
        <mxCell id="1" parent="0" />
        <mxCell id="_WTA8b4WBnbTkzu-12Y7-1" value="CarGenerator" style="swimlane;fontStyle=1;align=center;verticalAlign=top;childLayout=stackLayout;horizontal=1;startSize=32;horizontalStack=0;resizeParent=1;resizeParentMax=0;resizeLast=0;collapsible=0;marginBottom=0;" vertex="1" parent="1">
          <mxGeometry x="596" y="170" width="189" height="104" as="geometry" />
        </mxCell>
        <mxCell id="_WTA8b4WBnbTkzu-12Y7-2" value="Generates Car instances" style="text;strokeColor=none;fillColor=none;align=left;verticalAlign=top;spacingLeft=4;spacingRight=4;overflow=hidden;rotatable=0;points=[[0,0.5],[1,0.5]];portConstraint=eastwest;" vertex="1" parent="_WTA8b4WBnbTkzu-12Y7-1">
          <mxGeometry y="32" width="189" height="32" as="geometry" />
        </mxCell>
        <mxCell id="_WTA8b4WBnbTkzu-12Y7-3" style="line;strokeWidth=1;fillColor=none;align=left;verticalAlign=middle;spacingTop=-1;spacingLeft=3;spacingRight=3;rotatable=0;labelPosition=right;points=[];portConstraint=eastwest;strokeColor=inherit;" vertex="1" parent="_WTA8b4WBnbTkzu-12Y7-1">
          <mxGeometry y="64" width="189" height="8" as="geometry" />
        </mxCell>
        <mxCell id="_WTA8b4WBnbTkzu-12Y7-4" value="+process()" style="text;strokeColor=none;fillColor=none;align=left;verticalAlign=top;spacingLeft=4;spacingRight=4;overflow=hidden;rotatable=0;points=[[0,0.5],[1,0.5]];portConstraint=eastwest;" vertex="1" parent="_WTA8b4WBnbTkzu-12Y7-1">
          <mxGeometry y="72" width="189" height="32" as="geometry" />
        </mxCell>
        <mxCell id="_WTA8b4WBnbTkzu-12Y7-5" value="Car" style="swimlane;fontStyle=1;align=center;verticalAlign=top;childLayout=stackLayout;horizontal=1;startSize=29.75;horizontalStack=0;resizeParent=1;resizeParentMax=0;resizeLast=0;collapsible=0;marginBottom=0;" vertex="1" parent="1">
          <mxGeometry x="526" y="355" width="240" height="127.75" as="geometry" />
        </mxCell>
        <mxCell id="_WTA8b4WBnbTkzu-12Y7-6" value="Enters WaitingLine" style="text;strokeColor=none;fillColor=none;align=left;verticalAlign=top;spacingLeft=4;spacingRight=4;overflow=hidden;rotatable=0;points=[[0,0.5],[1,0.5]];portConstraint=eastwest;" vertex="1" parent="_WTA8b4WBnbTkzu-12Y7-5">
          <mxGeometry y="29.75" width="240" height="30" as="geometry" />
        </mxCell>
        <mxCell id="_WTA8b4WBnbTkzu-12Y7-7" value="Interacts with ChargingStations" style="text;strokeColor=none;fillColor=none;align=left;verticalAlign=top;spacingLeft=4;spacingRight=4;overflow=hidden;rotatable=0;points=[[0,0.5],[1,0.5]];portConstraint=eastwest;" vertex="1" parent="_WTA8b4WBnbTkzu-12Y7-5">
          <mxGeometry y="59.75" width="240" height="30" as="geometry" />
        </mxCell>
        <mxCell id="_WTA8b4WBnbTkzu-12Y7-8" style="line;strokeWidth=1;fillColor=none;align=left;verticalAlign=middle;spacingTop=-1;spacingLeft=3;spacingRight=3;rotatable=0;labelPosition=right;points=[];portConstraint=eastwest;strokeColor=inherit;" vertex="1" parent="_WTA8b4WBnbTkzu-12Y7-5">
          <mxGeometry y="89.75" width="240" height="8" as="geometry" />
        </mxCell>
        <mxCell id="_WTA8b4WBnbTkzu-12Y7-9" value="+process()" style="text;strokeColor=none;fillColor=none;align=left;verticalAlign=top;spacingLeft=4;spacingRight=4;overflow=hidden;rotatable=0;points=[[0,0.5],[1,0.5]];portConstraint=eastwest;" vertex="1" parent="_WTA8b4WBnbTkzu-12Y7-5">
          <mxGeometry y="97.75" width="240" height="30" as="geometry" />
        </mxCell>
        <mxCell id="_WTA8b4WBnbTkzu-12Y7-10" value="ChargingStation" style="swimlane;fontStyle=1;align=center;verticalAlign=top;childLayout=stackLayout;horizontal=1;startSize=32;horizontalStack=0;resizeParent=1;resizeParentMax=0;resizeLast=0;collapsible=0;marginBottom=0;" vertex="1" parent="1">
          <mxGeometry x="20" y="170" width="172" height="104" as="geometry" />
        </mxCell>
        <mxCell id="_WTA8b4WBnbTkzu-12Y7-11" value="Charges Car instances" style="text;strokeColor=none;fillColor=none;align=left;verticalAlign=top;spacingLeft=4;spacingRight=4;overflow=hidden;rotatable=0;points=[[0,0.5],[1,0.5]];portConstraint=eastwest;" vertex="1" parent="_WTA8b4WBnbTkzu-12Y7-10">
          <mxGeometry y="32" width="172" height="32" as="geometry" />
        </mxCell>
        <mxCell id="_WTA8b4WBnbTkzu-12Y7-12" style="line;strokeWidth=1;fillColor=none;align=left;verticalAlign=middle;spacingTop=-1;spacingLeft=3;spacingRight=3;rotatable=0;labelPosition=right;points=[];portConstraint=eastwest;strokeColor=inherit;" vertex="1" parent="_WTA8b4WBnbTkzu-12Y7-10">
          <mxGeometry y="64" width="172" height="8" as="geometry" />
        </mxCell>
        <mxCell id="_WTA8b4WBnbTkzu-12Y7-13" value="+process()" style="text;strokeColor=none;fillColor=none;align=left;verticalAlign=top;spacingLeft=4;spacingRight=4;overflow=hidden;rotatable=0;points=[[0,0.5],[1,0.5]];portConstraint=eastwest;" vertex="1" parent="_WTA8b4WBnbTkzu-12Y7-10">
          <mxGeometry y="72" width="172" height="32" as="geometry" />
        </mxCell>
        <mxCell id="_WTA8b4WBnbTkzu-12Y7-14" value="Component" style="swimlane;fontStyle=1;align=center;verticalAlign=top;childLayout=stackLayout;horizontal=1;startSize=28.4;horizontalStack=0;resizeParent=1;resizeParentMax=0;resizeLast=0;collapsible=0;marginBottom=0;" vertex="1" parent="1">
          <mxGeometry x="527" y="562" width="283" height="148.4" as="geometry" />
        </mxCell>
        <mxCell id="_WTA8b4WBnbTkzu-12Y7-15" value="Base class for simulation components" style="text;strokeColor=none;fillColor=none;align=left;verticalAlign=top;spacingLeft=4;spacingRight=4;overflow=hidden;rotatable=0;points=[[0,0.5],[1,0.5]];portConstraint=eastwest;" vertex="1" parent="_WTA8b4WBnbTkzu-12Y7-14">
          <mxGeometry y="28.4" width="283" height="28" as="geometry" />
        </mxCell>
        <mxCell id="_WTA8b4WBnbTkzu-12Y7-16" style="line;strokeWidth=1;fillColor=none;align=left;verticalAlign=middle;spacingTop=-1;spacingLeft=3;spacingRight=3;rotatable=0;labelPosition=right;points=[];portConstraint=eastwest;strokeColor=inherit;" vertex="1" parent="_WTA8b4WBnbTkzu-12Y7-14">
          <mxGeometry y="56.4" width="283" height="8" as="geometry" />
        </mxCell>
        <mxCell id="_WTA8b4WBnbTkzu-12Y7-17" value="+activate()" style="text;strokeColor=none;fillColor=none;align=left;verticalAlign=top;spacingLeft=4;spacingRight=4;overflow=hidden;rotatable=0;points=[[0,0.5],[1,0.5]];portConstraint=eastwest;" vertex="1" parent="_WTA8b4WBnbTkzu-12Y7-14">
          <mxGeometry y="64.4" width="283" height="28" as="geometry" />
        </mxCell>
        <mxCell id="_WTA8b4WBnbTkzu-12Y7-18" value="+passivate()" style="text;strokeColor=none;fillColor=none;align=left;verticalAlign=top;spacingLeft=4;spacingRight=4;overflow=hidden;rotatable=0;points=[[0,0.5],[1,0.5]];portConstraint=eastwest;" vertex="1" parent="_WTA8b4WBnbTkzu-12Y7-14">
          <mxGeometry y="92.4" width="283" height="28" as="geometry" />
        </mxCell>
        <mxCell id="_WTA8b4WBnbTkzu-12Y7-19" value="+hold(time)" style="text;strokeColor=none;fillColor=none;align=left;verticalAlign=top;spacingLeft=4;spacingRight=4;overflow=hidden;rotatable=0;points=[[0,0.5],[1,0.5]];portConstraint=eastwest;" vertex="1" parent="_WTA8b4WBnbTkzu-12Y7-14">
          <mxGeometry y="120.4" width="283" height="28" as="geometry" />
        </mxCell>
        <mxCell id="_WTA8b4WBnbTkzu-12Y7-20" value="WaitingLine" style="swimlane;fontStyle=1;align=center;verticalAlign=top;childLayout=stackLayout;horizontal=1;startSize=25;horizontalStack=0;resizeParent=1;resizeParentMax=0;resizeLast=0;collapsible=0;marginBottom=0;" vertex="1" parent="1">
          <mxGeometry x="144" y="608" width="104" height="38" as="geometry" />
        </mxCell>
        <mxCell id="_WTA8b4WBnbTkzu-12Y7-21" style="line;strokeWidth=1;fillColor=none;align=left;verticalAlign=middle;spacingTop=-1;spacingLeft=3;spacingRight=3;rotatable=0;labelPosition=right;points=[];portConstraint=eastwest;strokeColor=inherit;" vertex="1" parent="_WTA8b4WBnbTkzu-12Y7-20">
          <mxGeometry y="25" width="104" height="13" as="geometry" />
        </mxCell>
        <mxCell id="_WTA8b4WBnbTkzu-12Y7-22" value="Queue" style="swimlane;fontStyle=1;align=center;verticalAlign=top;childLayout=stackLayout;horizontal=1;startSize=28.4;horizontalStack=0;resizeParent=1;resizeParentMax=0;resizeLast=0;collapsible=0;marginBottom=0;" vertex="1" parent="1">
          <mxGeometry x="174" y="343" width="215" height="148.4" as="geometry" />
        </mxCell>
        <mxCell id="_WTA8b4WBnbTkzu-12Y7-23" value="-length" style="text;strokeColor=none;fillColor=none;align=left;verticalAlign=top;spacingLeft=4;spacingRight=4;overflow=hidden;rotatable=0;points=[[0,0.5],[1,0.5]];portConstraint=eastwest;" vertex="1" parent="_WTA8b4WBnbTkzu-12Y7-22">
          <mxGeometry y="28.4" width="215" height="28" as="geometry" />
        </mxCell>
        <mxCell id="_WTA8b4WBnbTkzu-12Y7-24" value="-length_of_stay" style="text;strokeColor=none;fillColor=none;align=left;verticalAlign=top;spacingLeft=4;spacingRight=4;overflow=hidden;rotatable=0;points=[[0,0.5],[1,0.5]];portConstraint=eastwest;" vertex="1" parent="_WTA8b4WBnbTkzu-12Y7-22">
          <mxGeometry y="56.4" width="215" height="28" as="geometry" />
        </mxCell>
        <mxCell id="_WTA8b4WBnbTkzu-12Y7-25" value="Represents WaitingLine" style="text;strokeColor=none;fillColor=none;align=left;verticalAlign=top;spacingLeft=4;spacingRight=4;overflow=hidden;rotatable=0;points=[[0,0.5],[1,0.5]];portConstraint=eastwest;" vertex="1" parent="_WTA8b4WBnbTkzu-12Y7-22">
          <mxGeometry y="84.4" width="215" height="28" as="geometry" />
        </mxCell>
        <mxCell id="_WTA8b4WBnbTkzu-12Y7-26" style="line;strokeWidth=1;fillColor=none;align=left;verticalAlign=middle;spacingTop=-1;spacingLeft=3;spacingRight=3;rotatable=0;labelPosition=right;points=[];portConstraint=eastwest;strokeColor=inherit;" vertex="1" parent="_WTA8b4WBnbTkzu-12Y7-22">
          <mxGeometry y="112.4" width="215" height="8" as="geometry" />
        </mxCell>
        <mxCell id="_WTA8b4WBnbTkzu-12Y7-27" value="+reset_monitors(stats_only)" style="text;strokeColor=none;fillColor=none;align=left;verticalAlign=top;spacingLeft=4;spacingRight=4;overflow=hidden;rotatable=0;points=[[0,0.5],[1,0.5]];portConstraint=eastwest;" vertex="1" parent="_WTA8b4WBnbTkzu-12Y7-22">
          <mxGeometry y="120.4" width="215" height="28" as="geometry" />
        </mxCell>
        <mxCell id="_WTA8b4WBnbTkzu-12Y7-28" value="App" style="swimlane;fontStyle=1;align=center;verticalAlign=top;childLayout=stackLayout;horizontal=1;startSize=32;horizontalStack=0;resizeParent=1;resizeParentMax=0;resizeLast=0;collapsible=0;marginBottom=0;" vertex="1" parent="1">
          <mxGeometry x="867" y="170" width="231" height="104" as="geometry" />
        </mxCell>
        <mxCell id="_WTA8b4WBnbTkzu-12Y7-29" value="Manages simulation execution" style="text;strokeColor=none;fillColor=none;align=left;verticalAlign=top;spacingLeft=4;spacingRight=4;overflow=hidden;rotatable=0;points=[[0,0.5],[1,0.5]];portConstraint=eastwest;" vertex="1" parent="_WTA8b4WBnbTkzu-12Y7-28">
          <mxGeometry y="32" width="231" height="32" as="geometry" />
        </mxCell>
        <mxCell id="_WTA8b4WBnbTkzu-12Y7-30" style="line;strokeWidth=1;fillColor=none;align=left;verticalAlign=middle;spacingTop=-1;spacingLeft=3;spacingRight=3;rotatable=0;labelPosition=right;points=[];portConstraint=eastwest;strokeColor=inherit;" vertex="1" parent="_WTA8b4WBnbTkzu-12Y7-28">
          <mxGeometry y="64" width="231" height="8" as="geometry" />
        </mxCell>
        <mxCell id="_WTA8b4WBnbTkzu-12Y7-31" value="+run(till)" style="text;strokeColor=none;fillColor=none;align=left;verticalAlign=top;spacingLeft=4;spacingRight=4;overflow=hidden;rotatable=0;points=[[0,0.5],[1,0.5]];portConstraint=eastwest;" vertex="1" parent="_WTA8b4WBnbTkzu-12Y7-28">
          <mxGeometry y="72" width="231" height="32" as="geometry" />
        </mxCell>
        <mxCell id="_WTA8b4WBnbTkzu-12Y7-32" value="Distribution" style="swimlane;fontStyle=1;align=center;verticalAlign=top;childLayout=stackLayout;horizontal=1;startSize=29.2;horizontalStack=0;resizeParent=1;resizeParentMax=0;resizeLast=0;collapsible=0;marginBottom=0;" vertex="1" parent="1">
          <mxGeometry x="382" y="20" width="298" height="73.2" as="geometry" />
        </mxCell>
        <mxCell id="_WTA8b4WBnbTkzu-12Y7-33" value="Used for inter-arrival and service times" style="text;strokeColor=none;fillColor=none;align=left;verticalAlign=top;spacingLeft=4;spacingRight=4;overflow=hidden;rotatable=0;points=[[0,0.5],[1,0.5]];portConstraint=eastwest;" vertex="1" parent="_WTA8b4WBnbTkzu-12Y7-32">
          <mxGeometry y="29.2" width="298" height="29" as="geometry" />
        </mxCell>
        <mxCell id="_WTA8b4WBnbTkzu-12Y7-34" style="line;strokeWidth=1;fillColor=none;align=left;verticalAlign=middle;spacingTop=-1;spacingLeft=3;spacingRight=3;rotatable=0;labelPosition=right;points=[];portConstraint=eastwest;strokeColor=inherit;" vertex="1" parent="_WTA8b4WBnbTkzu-12Y7-32">
          <mxGeometry y="58.2" width="298" height="15" as="geometry" />
        </mxCell>
        <mxCell id="_WTA8b4WBnbTkzu-12Y7-35" value="app" style="swimlane;fontStyle=1;align=center;verticalAlign=top;childLayout=stackLayout;horizontal=1;startSize=25;horizontalStack=0;resizeParent=1;resizeParentMax=0;resizeLast=0;collapsible=0;marginBottom=0;" vertex="1" parent="1">
          <mxGeometry x="816" y="389" width="43" height="38" as="geometry" />
        </mxCell>
        <mxCell id="_WTA8b4WBnbTkzu-12Y7-36" style="line;strokeWidth=1;fillColor=none;align=left;verticalAlign=middle;spacingTop=-1;spacingLeft=3;spacingRight=3;rotatable=0;labelPosition=right;points=[];portConstraint=eastwest;strokeColor=inherit;" vertex="1" parent="_WTA8b4WBnbTkzu-12Y7-35">
          <mxGeometry y="25" width="43" height="13" as="geometry" />
        </mxCell>
        <mxCell id="_WTA8b4WBnbTkzu-12Y7-37" value="Inherits" style="curved=1;startArrow=none;endArrow=block;endSize=16;endFill=0;exitX=0.9982432208994709;exitY=0.8240318089813085;entryX=0.9995306978798587;entryY=0.10925322395891043;rounded=0;" edge="1" parent="1" source="_WTA8b4WBnbTkzu-12Y7-1" target="_WTA8b4WBnbTkzu-12Y7-14">
          <mxGeometry relative="1" as="geometry">
            <Array as="points">
              <mxPoint x="933" y="309" />
              <mxPoint x="933" y="528" />
            </Array>
          </mxGeometry>
        </mxCell>
        <mxCell id="_WTA8b4WBnbTkzu-12Y7-38" value="Inherits" style="curved=1;startArrow=none;endArrow=block;endSize=16;endFill=0;exitX=0.8872923132491437;exitY=0.9960629921259843;entryX=0.8339286902802652;entryY=0;rounded=0;" edge="1" parent="1" source="_WTA8b4WBnbTkzu-12Y7-5" target="_WTA8b4WBnbTkzu-12Y7-14">
          <mxGeometry relative="1" as="geometry">
            <Array as="points">
              <mxPoint x="807" y="528" />
            </Array>
          </mxGeometry>
        </mxCell>
        <mxCell id="_WTA8b4WBnbTkzu-12Y7-39" value="Inherits" style="curved=1;startArrow=none;endArrow=block;endSize=16;endFill=0;exitX=0.9995912063953488;exitY=0.7069184094242172;entryX=-0.00022084805653710247;entryY=0.023868742627128844;rounded=0;" edge="1" parent="1" source="_WTA8b4WBnbTkzu-12Y7-10" target="_WTA8b4WBnbTkzu-12Y7-14">
          <mxGeometry relative="1" as="geometry">
            <Array as="points">
              <mxPoint x="452" y="309" />
              <mxPoint x="452" y="528" />
            </Array>
          </mxGeometry>
        </mxCell>
        <mxCell id="_WTA8b4WBnbTkzu-12Y7-40" value="Generates" style="curved=1;startArrow=none;endArrow=diamondThin;endSize=14;endFill=0;exitX=0.40796723514389727;exitY=1;entryX=0.5375348931578198;entryY=-0.003937007874015748;rounded=0;" edge="1" parent="1" source="_WTA8b4WBnbTkzu-12Y7-1" target="_WTA8b4WBnbTkzu-12Y7-5">
          <mxGeometry relative="1" as="geometry">
            <Array as="points">
              <mxPoint x="662" y="309" />
            </Array>
          </mxGeometry>
        </mxCell>
        <mxCell id="_WTA8b4WBnbTkzu-12Y7-41" value="1" style="edgeLabel;resizable=0;align=left;verticalAlign=top;" vertex="1" parent="_WTA8b4WBnbTkzu-12Y7-40">
          <mxGeometry x="-1" relative="1" as="geometry" />
        </mxCell>
        <mxCell id="_WTA8b4WBnbTkzu-12Y7-42" value="many" style="edgeLabel;resizable=0;align=right;verticalAlign=top;" vertex="1" parent="_WTA8b4WBnbTkzu-12Y7-40">
          <mxGeometry x="1" relative="1" as="geometry" />
        </mxCell>
        <mxCell id="_WTA8b4WBnbTkzu-12Y7-43" value="Enters" style="curved=1;startArrow=none;endArrow=diamondThin;endSize=14;endFill=0;exitX=0.4986572265625;exitY=0.9960629921259843;entryX=0.9954740084134616;entryY=0.2824618354885066;rounded=0;" edge="1" parent="1" source="_WTA8b4WBnbTkzu-12Y7-5" target="_WTA8b4WBnbTkzu-12Y7-20">
          <mxGeometry relative="1" as="geometry">
            <Array as="points">
              <mxPoint x="646" y="528" />
            </Array>
          </mxGeometry>
        </mxCell>
        <mxCell id="_WTA8b4WBnbTkzu-12Y7-44" value="many" style="edgeLabel;resizable=0;align=left;verticalAlign=top;" vertex="1" parent="_WTA8b4WBnbTkzu-12Y7-43">
          <mxGeometry x="-1" relative="1" as="geometry" />
        </mxCell>
        <mxCell id="_WTA8b4WBnbTkzu-12Y7-45" value="1" style="edgeLabel;resizable=0;align=right;verticalAlign=top;" vertex="1" parent="_WTA8b4WBnbTkzu-12Y7-43">
          <mxGeometry x="1" relative="1" as="geometry" />
        </mxCell>
        <mxCell id="_WTA8b4WBnbTkzu-12Y7-46" value="Charges" style="curved=1;startArrow=none;endArrow=diamondThin;endSize=14;endFill=0;exitX=0.9995912063953488;exitY=0.9449660035361556;entryX=-0.0009521484375;entryY=0.2233023669600841;rounded=0;" edge="1" parent="1" source="_WTA8b4WBnbTkzu-12Y7-10" target="_WTA8b4WBnbTkzu-12Y7-5">
          <mxGeometry relative="1" as="geometry">
            <Array as="points">
              <mxPoint x="267" y="309" />
            </Array>
          </mxGeometry>
        </mxCell>
        <mxCell id="_WTA8b4WBnbTkzu-12Y7-47" value="many" style="edgeLabel;resizable=0;align=left;verticalAlign=top;" vertex="1" parent="_WTA8b4WBnbTkzu-12Y7-46">
          <mxGeometry x="-1" relative="1" as="geometry" />
        </mxCell>
        <mxCell id="_WTA8b4WBnbTkzu-12Y7-48" value="many" style="edgeLabel;resizable=0;align=right;verticalAlign=top;" vertex="1" parent="_WTA8b4WBnbTkzu-12Y7-46">
          <mxGeometry x="1" relative="1" as="geometry" />
        </mxCell>
        <mxCell id="_WTA8b4WBnbTkzu-12Y7-49" value="Instance" style="curved=1;startArrow=block;startSize=16;startFill=0;endArrow=none;exitX=0.4997910610465116;exitY=1;entryX=0.7153367477004302;entryY=0;rounded=0;" edge="1" parent="1" source="_WTA8b4WBnbTkzu-12Y7-22" target="_WTA8b4WBnbTkzu-12Y7-20">
          <mxGeometry relative="1" as="geometry">
            <Array as="points">
              <mxPoint x="281" y="528" />
            </Array>
          </mxGeometry>
        </mxCell>
        <mxCell id="_WTA8b4WBnbTkzu-12Y7-50" value="Instance" style="curved=1;startArrow=block;startSize=16;startFill=0;endArrow=none;exitX=0.5010061553030303;exitY=1;entryX=0.9866914970930233;entryY=0.2224732270116486;rounded=0;" edge="1" parent="1" source="_WTA8b4WBnbTkzu-12Y7-28" target="_WTA8b4WBnbTkzu-12Y7-35">
          <mxGeometry relative="1" as="geometry">
            <Array as="points">
              <mxPoint x="983" y="309" />
            </Array>
          </mxGeometry>
        </mxCell>
        <mxCell id="_WTA8b4WBnbTkzu-12Y7-51" value="Uses" style="curved=1;startArrow=none;endArrow=diamondThin;endSize=14;endFill=0;exitX=0.7874767984479866;exitY=1;entryX=0.4983878968253968;entryY=0;rounded=0;" edge="1" parent="1" source="_WTA8b4WBnbTkzu-12Y7-32" target="_WTA8b4WBnbTkzu-12Y7-1">
          <mxGeometry relative="1" as="geometry">
            <Array as="points">
              <mxPoint x="690" y="136" />
            </Array>
          </mxGeometry>
        </mxCell>
        <mxCell id="_WTA8b4WBnbTkzu-12Y7-52" value="Uses" style="curved=1;startArrow=none;endArrow=diamondThin;endSize=14;endFill=0;exitX=-0.0014877831375838925;exitY=0.8246431712009495;entryX=0.4997956031976744;entryY=0;rounded=0;" edge="1" parent="1" source="_WTA8b4WBnbTkzu-12Y7-32" target="_WTA8b4WBnbTkzu-12Y7-10">
          <mxGeometry relative="1" as="geometry">
            <Array as="points">
              <mxPoint x="106" y="136" />
            </Array>
          </mxGeometry>
        </mxCell>
        <mxCell id="_WTA8b4WBnbTkzu-12Y7-53" value="Part of Simulation" style="curved=1;startArrow=none;endArrow=open;endSize=12;exitX=0.02168370760314403;exitY=1;entryX=-0.009674781976744186;entryY=0.36368298254001374;rounded=0;" edge="1" parent="1" source="_WTA8b4WBnbTkzu-12Y7-1" target="_WTA8b4WBnbTkzu-12Y7-35">
          <mxGeometry relative="1" as="geometry">
            <Array as="points">
              <mxPoint x="540" y="309" />
            </Array>
          </mxGeometry>
        </mxCell>
        <mxCell id="_WTA8b4WBnbTkzu-12Y7-54" value="Joins Queue" style="curved=1;startArrow=none;endArrow=open;endSize=12;exitX=0.22219067345652566;exitY=0.9960629921259843;entryX=0.9954740084134616;entryY=0.20829137166392175;rounded=0;" edge="1" parent="1" source="_WTA8b4WBnbTkzu-12Y7-5" target="_WTA8b4WBnbTkzu-12Y7-20">
          <mxGeometry relative="1" as="geometry">
            <Array as="points">
              <mxPoint x="531" y="528" />
            </Array>
          </mxGeometry>
        </mxCell>
        <mxCell id="_WTA8b4WBnbTkzu-12Y7-55" value="Accesses Queue" style="curved=1;startArrow=none;endArrow=open;endSize=12;exitX=0.41530581542378003;exitY=1;entryX=0.20688418250021948;entryY=0;rounded=0;" edge="1" parent="1" source="_WTA8b4WBnbTkzu-12Y7-10" target="_WTA8b4WBnbTkzu-12Y7-20">
          <mxGeometry relative="1" as="geometry">
            <Array as="points">
              <mxPoint x="82" y="309" />
              <mxPoint x="82" y="528" />
            </Array>
          </mxGeometry>
        </mxCell>
      </root>
    </mxGraphModel>
  </diagram>
</mxfile>
